# xmcd
#
# Track frame offsets:
#	150
#	16448
#	37527
#	55308
#	69838
#	86361
#	102778
#	118428
#	136080
#	152359
#	167290
#	188332
#	205821
#	219661
#	234370
#	250155
#	267295
#	282960
#	300008
#
# Disc length: 4168 seconds
#
# Revision: 0
# Processed by: cddbd v1.5.2PL0 Copyright (c) Steve Scherf et al.
# Submitted via: audiograbber 1.83.01
#
DISCID=e4104613
DTITLE=Various Artist - Hc161
DYEAR=2009
DGENRE=Country
TTITLE0=Keith Urban - Only You Can Love Me This Way (Radio Edit)
TTITLE1=Brad Paisley - Welcome To The Future
TTITLE2=Doc Walker - Coming Home (Radio Edit)
TTITLE3=George Canyon - Let It Out
TTITLE4=Terrie Clark - Gypsy Boots (Radio Version)
TTITLE5=James Otto - Since You Brought It Up
TTITLE6=Crystal Shawanda - Try
TTITLE7=Steven Lee Olsen - Now
TTITLE8=Johnny Reid - Dance With Me
TTITLE9=Montgomery Gentry - Long Line Of Losers
TTITLE10=Kellie Pickler - Didnt You Know How Much I Loved You
TTITLE11=Zac Brown Band - Toes (Radio Edit)
TTITLE12=Jake Owen - Eight Second Ride
TTITLE13=Sara Evans - Feels Just Like A Love Song
TTITLE14=Aaron Pritchett - Hard To Miss
TTITLE15=Gretchen Wilson - If I Could Do It All Again
TTITLE16=Whitney Duncan - Skinny Dippin' (Album Version)
TTITLE17=Phil Vassar - Bobbi With An I
TTITLE18=Merle Haggard - Let's Chase Each Other Around The Room
EXTD=
EXTT0=
EXTT1=
EXTT2=
EXTT3=
EXTT4=
EXTT5=
EXTT6=
EXTT7=
EXTT8=
EXTT9=
EXTT10=
EXTT11=
EXTT12=
EXTT13=
EXTT14=
EXTT15=
EXTT16=
EXTT17=
EXTT18=
PLAYORDER=
